<svg width="758" height="737" viewBox="0 0 758 737" fill="none" xmlns="http://www.w3.org/2000/svg">
<path d="M567.184 93.7983C567.184 -29.7581 698.192 -12.7305 758 39.6653V736.992H62.0571C13.0935 738.133 -54.0106 617.817 73.2521 566.116C200.515 514.415 235.766 483.745 195.594 389.107C155.422 294.468 300.588 229.878 409.235 275.189C517.882 320.501 567.184 217.355 567.184 93.7983Z" fill="#FBE4D7"/>
<path d="M594.371 161.871C594.371 51.3914 706.714 66.6169 758 113.467V736.993H161.215C119.228 738.013 61.6848 630.431 170.815 584.202C279.945 537.973 310.174 510.548 275.725 425.926C241.277 341.303 365.76 283.549 458.927 324.065C552.094 364.581 594.371 272.351 594.371 161.871Z" fill="#2B216C"/>
<path d="M590.947 400.925C612.022 312.459 718.421 269.188 758 301.882V737H297.449C247.59 632.668 358.102 511.027 441.371 511.027C524.64 511.027 569.873 489.391 590.947 400.925Z" fill="#EC3E33"/>
</svg>
