<svg width="1440" height="2532" viewBox="0 0 1440 2532" fill="none" xmlns="http://www.w3.org/2000/svg">
<rect width="1440" height="2532" fill="#050025"/>
<mask id="mask0" mask-type="alpha" maskUnits="userSpaceOnUse" x="0" y="22" width="1440" height="2415">
<rect y="22" width="1440" height="2415" fill="#070035"/>
</mask>
<g mask="url(#mask0)">
<path d="M-78.4932 1161.9C-44.8696 1086.4 -194.594 1178.95 -98.1681 924.839C-65.4734 838.677 -147.477 785.804 -190.94 708.069C-222.576 651.487 -208.017 606.302 -137.516 594.458C-67.014 582.615 -81.4925 509.641 -113.967 450.223C-146.442 390.805 56.0068 236.269 75.5063 450.223C83.7529 540.706 216.284 489.807 260.507 563.265C317.007 657.116 237.537 717.264 224.449 763.81C199.056 854.117 339.091 869.022 320.007 984.113C300.923 1099.2 97.3428 1116.88 -2.49319 1161.9C-137.087 1221.69 -112.117 1237.39 -78.4932 1161.9Z" fill="#F8CFB8"/>
<path d="M1701.01 1661.15C1757.51 1755 1678.04 1815.15 1664.95 1861.7C1639.56 1952 1779.59 1966.91 1760.51 2082C1741.42 2197.09 1556.84 2306.78 1457 2351.8C1215.96 2335.34 977.5 2124.76 1194.5 2050.99C1364.5 1993.19 1284.46 1924.22 1241 1846.49C1209.36 1789.91 1264.5 1731.89 1293 1710.65C1321.5 1689.41 1335.57 1656.74 1326.53 1548.11C1317.5 1439.47 1496.51 1334.15 1516.01 1548.11C1524.25 1638.59 1656.78 1587.69 1701.01 1661.15Z" fill="#F8CFB8"/>
</g>
</svg>
