<svg width="893" height="517" viewBox="0 0 893 517" fill="none" xmlns="http://www.w3.org/2000/svg">
<path d="M776.5 376.5C715.5 319.5 746 639.5 535.127 463.446C463.627 403.751 386.002 463.446 297.37 478.446C232.857 489.364 194.504 460.5 206.502 390C218.5 319.5 144 308.74 76.4995 319.5C8.99915 330.261 -82.8793 156.525 147.999 134C205.425 122.266 238.127 101.347 297.37 38.2994C362.828 -31.363 473.989 10.3683 514.127 38.2994C592.002 92.4899 634.002 106.5 703.002 53.4998C772.002 0.499474 880.874 64.5121 890.869 173.8C903.484 320.835 837.5 433.5 776.5 376.5Z" fill="#F8CFB8"/>
</svg>
